<svg width="240" height="240" viewBox="0 0 240 240" fill="none" xmlns="http://www.w3.org/2000/svg">
<path d="M120.338 201.176L35.0496 152.339L120.338 103.501L205.627 152.339L120.338 201.176Z" fill="#BDBDBD" stroke="#1D1D1D" stroke-width="8"/>
<path d="M120.338 169.176L35.0496 120.338L120.338 71.5008L205.627 120.338L120.338 169.176Z" fill="#BDBDBD" stroke="#1D1D1D" stroke-width="8"/>
<path d="M120.338 137.176L35.0496 88.3379L120.338 39.5003L205.627 88.3379L120.338 137.176Z" fill="#7895CF" stroke="#1D1D1D" stroke-width="8"/>
<path d="M168 114V71H126V46H168V4H194V46H236V71H194V114H168Z" fill="#BDBDBD"/>
<path d="M190 8V50H232V67H190V110H172V67H130V50H172V8H190ZM198 0H164V42H122V75H164V118H198V75H240V42H198V0Z" fill="#1D1D1D"/>
</svg>
