<svg width="240" height="240" viewBox="0 0 240 240" fill="none" xmlns="http://www.w3.org/2000/svg">
<path fill-rule="evenodd" clip-rule="evenodd" d="M119.7 25C88.3855 25 63 50.3854 63 81.7V157.3C63 188.615 88.3855 214 119.7 214C151.015 214 176.4 188.615 176.4 157.3V81.7C176.4 50.3854 151.015 25 119.7 25ZM120 41C97.9086 41 80 58.9086 80 81V158C80 180.091 97.9086 198 120 198C142.091 198 160 180.091 160 158V81C160 58.9086 142.091 41 120 41Z" fill="#1D1D1D"/>
<rect x="59" y="21" width="122" height="196" rx="61" stroke="#1D1D1D" stroke-width="8"/>
<rect x="67" y="29" width="106" height="180" rx="53" fill="#7895CF" stroke="#7895CF" stroke-width="8"/>
<path d="M181 113C181 121.837 153.689 129 120 129C86.3106 129 59 121.837 59 113" stroke="#1D1D1D" stroke-width="8"/>
<path fill-rule="evenodd" clip-rule="evenodd" d="M52.0536 72.2002C50.4536 72.2002 48.9536 71.2002 48.3536 69.7002C47.7536 68.2002 48.0535 66.5003 49.2535 65.3003L63.9535 50.6001C60.3535 47.1001 54.5535 41.5003 52.7535 39.8003C48.4535 35.5003 43.0534 33.2002 37.1534 33.2002C30.6534 33.2002 24.3535 36 19.2535 41C16.0535 44.2 13.7535 48.4 12.7535 53C12.3535 54.8 10.7536 56.1001 8.85362 56.1001C8.85362 56.1001 8.85353 56.1001 8.75353 56.1001C6.85353 56.1001 5.25362 54.7004 4.85362 52.9004C2.25362 39.5004 6.35348 25.7 15.9535 16C23.6535 8.2 33.8534 4 44.6534 4C55.5534 4 65.7536 8.3 73.3536 16C74.1536 16.8 81.2536 23.7003 86.0536 28.3003L101.754 12.6001C102.554 11.8001 103.554 11.4004 104.554 11.4004C105.054 11.4004 105.554 11.5002 106.054 11.7002C107.554 12.3002 108.554 13.8004 108.554 15.4004V68.2002C108.554 70.4002 106.754 72.2002 104.554 72.2002H52.0536Z" fill="#BDBDBD"/>
<path d="M44.6527 8C54.0527 8 63.3529 11.6003 70.5529 18.8003C71.7529 20.0003 86.1527 33.9004 86.1527 33.9004L104.653 15.4004V68.2002H51.9528L69.5529 50.6001C69.5529 50.6001 58.0528 39.5 55.4528 37C50.1528 31.7 43.6529 29.2002 37.0529 29.2002C29.6529 29.2002 22.2529 32.3002 16.3529 38.2002C12.3529 42.2002 9.85284 47.0001 8.75284 52.1001C6.45284 40.4001 9.85284 27.8003 18.7528 18.8003C25.9528 11.6003 35.3527 8 44.6527 8ZM44.6527 0C32.7527 0 21.4529 4.7002 13.0529 13.2002C2.55289 23.8002 -2.04706 38.9002 0.85294 53.7002C1.55294 57.4002 4.85289 60.1002 8.55289 60.2002H8.65275C12.3527 60.2002 15.6528 57.6 16.4528 54C17.3528 50.1 19.1529 46.7 21.8529 44C26.1529 39.7 31.4528 37.3003 36.9528 37.3003C41.7528 37.3003 46.1528 39.2002 49.7528 42.7002C51.0528 44.0002 54.7529 47.6003 58.0529 50.8003L46.2528 62.6001C43.9528 64.9001 43.2529 68.3003 44.5529 71.3003C45.7529 74.3003 48.7528 76.2002 51.9528 76.2002H104.653C109.053 76.2002 112.653 72.6002 112.653 68.2002V15.4004C112.653 12.2004 110.653 9.2 107.753 8C106.753 7.6 105.753 7.40039 104.653 7.40039C102.553 7.40039 100.553 8.20029 98.9528 9.80029L86.0529 22.8003C81.3529 18.3003 76.8528 13.9003 76.2528 13.3003C67.8528 4.70029 56.6527 0 44.6527 0Z" fill="#1D1D1D"/>
</svg>
