<svg width="240" height="240" viewBox="0 0 240 240" fill="none" xmlns="http://www.w3.org/2000/svg">
<path d="M120.338 200.429L35.0496 151.591L120.338 102.754L205.627 151.591L120.338 200.429Z" fill="#7895CF" stroke="#1D1D1D" stroke-width="8"/>
<path d="M120.326 176.945L76.0496 151.591L120.326 126.238L164.602 151.591L120.326 176.945Z" fill="#1D1D1D" stroke="#1D1D1D" stroke-width="8"/>
<path d="M172 76.8999L140.1 76.8L140.2 140.5L99.7 140.5L99.5999 76.8L67.7 76.6999L119.8 24.6999L172 76.8999Z" fill="#BDBDBD"/>
<path d="M136.1 136.5L103.6 136.5L103.5 72.8L77.2996 72.8L119.7 30.3999L162.2 72.8999L136 72.8999L136.1 136.5ZM144.2 144.5L144.2 136.5L144.1 80.8999L162.3 80.8999L181.6 80.8999L167.9 67.1999L125.4 24.6999L119.7 19L114 24.6999L71.5996 67.0998L57.9998 80.6999L77.2996 80.6999L95.5996 80.6999L95.6997 136.4L95.6997 144.4L103.7 144.4L136.2 144.4L144.2 144.5Z" fill="#1D1D1D"/>
</svg>
