<svg width="240" height="240" viewBox="0 0 240 240" fill="none" xmlns="http://www.w3.org/2000/svg">
<path fill-rule="evenodd" clip-rule="evenodd" d="M202.7 52.8H234.82V165H207.805L207.494 163.615C203.48 165.562 198.856 166.69 193.54 166.69C183.199 166.69 174.092 162.492 167.689 154.971C164.839 151.624 162.611 147.727 161.024 143.414C161.35 142.09 161.521 140.682 161.521 139.19V136.33C161.521 132.016 160.343 128.706 158.273 126.06C158.219 125.991 158.165 125.923 158.11 125.855V118.78C158.11 107.717 161.45 97.5911 167.837 90.0945C174.305 82.502 183.579 78.0201 194.32 78.0201C197.288 78.0201 200.077 78.3446 202.7 78.9889V52.8ZM210.7 92.13C208.304 89.9454 205.679 88.3338 202.7 87.316C200.184 86.4562 197.415 86.0201 194.32 86.0201C177.55 86.0201 166.11 99.8 166.11 118.78V126.06C166.11 145.82 177.42 158.69 193.54 158.69C198.311 158.69 202.295 157.53 205.678 155.513C208.287 153.958 210.539 151.894 212.52 149.46L214.21 157H226.82V60.8H210.7V92.13ZM210.7 138.54V103.96C207.84 100.84 203.03 98.24 197.05 98.24C187.82 98.24 182.23 105.26 182.23 118.39V126.32C182.23 140.1 187.69 146.6 196.4 146.6C202.77 146.6 207.06 143.48 210.7 138.54ZM196.4 138.6C198.812 138.6 200.673 137.861 202.7 135.695V107.706C201.241 106.862 199.329 106.24 197.05 106.24C194.698 106.24 193.469 107.006 192.575 108.196C191.441 109.706 190.23 112.805 190.23 118.39V126.32C190.23 132.34 191.452 135.468 192.501 136.898C193.27 137.947 194.278 138.6 196.4 138.6Z" fill="#1D1D1D"/>
<path fill-rule="evenodd" clip-rule="evenodd" d="M98.3503 153.848L100.044 155.29C108.736 162.694 120.548 166.69 133.831 166.69C142.342 166.69 150.91 164.825 157.625 160.485C163.765 156.517 168.295 150.449 169.308 142.574C168.832 141.492 168.405 140.363 168.03 139.19C167.734 138.264 167.471 137.31 167.241 136.33C166.501 133.171 166.11 129.734 166.11 126.06V123.352C165.072 121.642 163.809 120.076 162.339 118.653C160.272 116.654 157.899 115.042 155.409 113.7L172.186 93.6847L165.957 88.5546C157.729 81.7789 146.381 78.0201 134.871 78.0201C125.959 78.0201 117.663 80.2373 111.358 84.7126C104.905 89.293 100.611 96.267 100.611 104.74V107.6C100.611 114.014 102.87 119.507 107.164 123.901C111.192 128.022 116.647 130.807 122.532 132.934L122.593 132.956L131.367 135.968C133.521 136.706 135.082 137.316 136.227 137.85C136.571 138.011 136.855 138.154 137.088 138.279C136.899 138.326 136.685 138.373 136.444 138.418C135.426 138.608 134.089 138.73 132.401 138.73C126.611 138.73 122.277 137.002 117.701 133.57L111.613 129.004L98.3503 144.963V153.848ZM151.564 111.857L149.142 110.304C143.535 106.707 140.094 105.98 135.391 105.98C135.384 105.98 135.378 105.98 135.371 105.98C136.243 106.349 137.288 106.752 138.542 107.195L147.259 110.187L147.299 110.202C148.706 110.701 150.138 111.247 151.564 111.857ZM135.911 114.75C127.071 111.63 124.731 109.29 124.731 105.65V104.61C124.731 100.97 128.111 97.98 135.391 97.98C141.631 97.98 146.571 99.1501 153.461 103.57L160.871 94.73C158.849 93.065 156.562 91.6055 154.078 90.381C148.417 87.5901 141.738 86.0201 134.871 86.0201C119.531 86.0201 108.611 93.6901 108.611 104.74V107.6C108.611 116.31 114.461 121.51 125.251 125.41L133.961 128.4C143.061 131.52 145.531 133.6 145.531 138.15V139.19C145.531 144.39 140.591 146.73 132.401 146.73C124.601 146.73 118.621 144.26 112.901 139.97L105.231 149.2C105.443 149.381 105.658 149.559 105.875 149.735C107.707 151.22 109.723 152.543 111.905 153.686C118.03 156.895 125.465 158.69 133.831 158.69C148.781 158.69 161.521 152.06 161.521 139.19V136.33C161.521 125.8 154.501 121.25 144.621 117.74L135.911 114.75Z" fill="#1D1D1D"/>
<path fill-rule="evenodd" clip-rule="evenodd" d="M82.2303 87.84V137.76C78.2003 143.35 72.4803 146.6 66.6303 146.6C60.2603 146.6 56.8803 143.09 56.8803 136.85V87.84H40.7603V137.63C40.7603 150.63 50.5103 158.69 62.7303 158.69C67.7949 158.69 72.3458 157.429 76.327 155.159C78.9882 153.642 81.3949 151.674 83.5303 149.33L84.7003 157H98.3503V87.84H82.2303ZM77.5982 163.493C73.1362 165.548 68.1552 166.69 62.7303 166.69C54.8766 166.69 47.3745 164.089 41.7526 158.928C36.0531 153.696 32.7603 146.254 32.7603 137.63V79.84H64.8803V136.85C64.8803 137.729 64.9968 138.197 65.0744 138.407C65.2869 138.485 65.7547 138.6 66.6303 138.6C68.94 138.6 71.7278 137.515 74.2303 134.903V79.84H106.35V147.853L105.231 149.2C105.597 149.511 105.97 149.816 106.35 150.113V165H77.8281L77.5982 163.493ZM64.9282 138.337C64.9292 138.336 64.9439 138.344 64.969 138.363C64.9397 138.348 64.9272 138.338 64.9282 138.337ZM65.1206 138.515C65.1367 138.537 65.1431 138.549 65.1423 138.55C65.1414 138.551 65.1334 138.54 65.1206 138.515Z" fill="#1D1D1D"/>
<path fill-rule="evenodd" clip-rule="evenodd" d="M10.2539 148.42C10.2539 154.14 14.8039 158.69 20.5239 158.69C26.2439 158.69 30.6639 154.14 30.6639 148.42C30.6639 142.83 26.2439 138.15 20.5239 138.15C14.8039 138.15 10.2539 142.83 10.2539 148.42ZM20.5239 166.69C10.3856 166.69 2.25391 158.558 2.25391 148.42C2.25391 138.478 10.3199 130.15 20.5239 130.15C30.8602 130.15 38.6639 138.612 38.6639 148.42C38.6639 158.424 30.7951 166.69 20.5239 166.69Z" fill="#1D1D1D"/>
<path d="M210.7 60.8H226.82V157H214.21L212.52 149.46C207.97 155.05 201.99 158.69 193.54 158.69C177.42 158.69 166.11 145.82 166.11 126.06V118.78C166.11 99.8 177.55 86.0201 194.32 86.0201C201.08 86.0201 206.28 88.1 210.7 92.13V60.8ZM196.4 146.6C202.77 146.6 207.06 143.48 210.7 138.54V103.96C207.84 100.84 203.03 98.24 197.05 98.24C187.82 98.24 182.23 105.26 182.23 118.39V126.32C182.23 140.1 187.69 146.6 196.4 146.6Z" fill="#7895CF"/>
<path d="M133.831 158.69C122.131 158.69 112.251 155.18 105.231 149.2L112.901 139.97C118.621 144.26 124.601 146.73 132.401 146.73C140.591 146.73 145.531 144.39 145.531 139.19V138.15C145.531 133.6 143.061 131.52 133.961 128.4L125.251 125.41C114.461 121.51 108.611 116.31 108.611 107.6V104.74C108.611 93.6901 119.531 86.0201 134.871 86.0201C144.751 86.0201 154.241 89.27 160.871 94.73L153.461 103.57C146.571 99.1501 141.631 97.98 135.391 97.98C128.111 97.98 124.731 100.97 124.731 104.61V105.65C124.731 109.29 127.071 111.63 135.911 114.75L144.621 117.74C154.501 121.25 161.521 125.8 161.521 136.33V139.19C161.521 152.06 148.781 158.69 133.831 158.69Z" fill="#7895CF"/>
<path d="M82.2303 87.84H98.3503V157H84.7003L83.5303 149.33C78.2003 155.18 71.1803 158.69 62.7303 158.69C50.5103 158.69 40.7603 150.63 40.7603 137.63V87.84H56.8803V136.85C56.8803 143.09 60.2603 146.6 66.6303 146.6C72.4803 146.6 78.2003 143.35 82.2303 137.76V87.84Z" fill="#7895CF"/>
<path d="M20.5239 158.69C14.8039 158.69 10.2539 154.14 10.2539 148.42C10.2539 142.83 14.8039 138.15 20.5239 138.15C26.2439 138.15 30.6639 142.83 30.6639 148.42C30.6639 154.14 26.2439 158.69 20.5239 158.69Z" fill="#7895CF"/>
</svg>
