<svg width="240" height="240" viewBox="0 0 240 240" fill="none" xmlns="http://www.w3.org/2000/svg">
<path fill-rule="evenodd" clip-rule="evenodd" d="M120.2 51.2002C109.9 51.2002 101.6 42.9006 101.6 32.6006C101.6 22.3006 109.9 14 120.2 14C130.5 14 138.8 22.3006 138.8 32.6006C138.8 42.9006 130.5 51.2002 120.2 51.2002Z" fill="#BDBDBD"/>
<path d="M120.2 18C128.3 18 134.8 24.5006 134.8 32.6006C134.8 40.7006 128.3 47.2002 120.2 47.2002C112.1 47.2002 105.6 40.7006 105.6 32.6006C105.6 24.5006 112.2 18 120.2 18ZM120.2 10C107.7 10 97.5996 20.1006 97.5996 32.6006C97.5996 45.1006 107.7 55.2002 120.2 55.2002C132.7 55.2002 142.8 45.1006 142.8 32.6006C142.8 20.1006 132.7 10 120.2 10Z" fill="#1D1D1D"/>
<path fill-rule="evenodd" clip-rule="evenodd" d="M47.1987 211.8C32.8987 211.8 21.2988 200.2 21.2988 185.9C21.2988 171.6 32.8987 160 47.1987 160C61.4987 160 73.0986 171.6 73.0986 185.9C73.0986 200.2 61.4987 211.8 47.1987 211.8Z" fill="#BDBDBD"/>
<path d="M47.1987 164C59.2987 164 69.0986 173.8 69.0986 185.9C69.0986 198 59.2987 207.8 47.1987 207.8C35.0987 207.8 25.2988 198 25.2988 185.9C25.2988 173.8 35.0987 164 47.1987 164ZM47.1987 156C30.6987 156 17.2988 169.4 17.2988 185.9C17.2988 202.4 30.6987 215.8 47.1987 215.8C63.6987 215.8 77.0986 202.4 77.0986 185.9C77.0986 169.5 63.6987 156 47.1987 156Z" fill="#1D1D1D"/>
<path fill-rule="evenodd" clip-rule="evenodd" d="M25.2993 95C14.9993 95 6.69922 86.7004 6.69922 76.4004C6.69922 66.1004 14.9993 57.7998 25.2993 57.7998C35.5993 57.7998 43.8994 66.1004 43.8994 76.4004C43.8994 86.7004 35.5993 95 25.2993 95Z" fill="#BDBDBD"/>
<path d="M25.2993 61.7998C33.3993 61.7998 39.8994 68.3004 39.8994 76.4004C39.8994 84.5004 33.3993 91 25.2993 91C17.1993 91 10.6992 84.5004 10.6992 76.4004C10.6992 68.4004 17.1993 61.7998 25.2993 61.7998ZM25.2993 53.7998C12.7993 53.7998 2.69922 63.9004 2.69922 76.4004C2.69922 88.9004 12.7993 99 25.2993 99C37.7993 99 47.8994 88.9004 47.8994 76.4004C47.8994 64.0004 37.7993 53.7998 25.2993 53.7998Z" fill="#1D1D1D"/>
<path fill-rule="evenodd" clip-rule="evenodd" d="M163.998 87.7002C153.698 87.7002 145.398 79.4006 145.398 69.1006C145.398 58.8006 153.698 50.5 163.998 50.5C174.298 50.5 182.598 58.8006 182.598 69.1006C182.598 79.4006 174.298 87.7002 163.998 87.7002Z" fill="#BDBDBD"/>
<path d="M163.998 54.5C172.098 54.5 178.598 61.0006 178.598 69.1006C178.598 77.2006 172.098 83.7002 163.998 83.7002C155.898 83.7002 149.398 77.2006 149.398 69.1006C149.398 61.0006 155.998 54.5 163.998 54.5ZM163.998 46.5C151.498 46.5 141.398 56.6006 141.398 69.1006C141.398 81.6006 151.498 91.7002 163.998 91.7002C176.498 91.7002 186.598 81.6006 186.598 69.1006C186.598 56.7006 176.498 46.5 163.998 46.5Z" fill="#1D1D1D"/>
<path fill-rule="evenodd" clip-rule="evenodd" d="M153.1 204.5C144.9 204.5 138.1 197.8 138.1 189.5C138.1 181.3 144.8 174.5 153.1 174.5C161.3 174.5 168.1 181.2 168.1 189.5C168 197.8 161.3 204.5 153.1 204.5Z" fill="#BDBDBD"/>
<path d="M153.1 178.601C159.2 178.601 164.1 183.501 164.1 189.601C164.1 195.601 159.2 200.601 153.1 200.601C147.1 200.601 142.1 195.701 142.1 189.601C142.1 183.501 147 178.601 153.1 178.601ZM153.1 170.601C142.6 170.601 134.1 179.101 134.1 189.601C134.1 200.101 142.6 208.601 153.1 208.601C163.6 208.601 172.1 200.101 172.1 189.601C172 179.101 163.5 170.601 153.1 170.601Z" fill="#1D1D1D"/>
<path fill-rule="evenodd" clip-rule="evenodd" d="M215.1 116.9C204.8 116.9 196.5 108.6 196.5 98.2998C196.5 87.9998 204.8 79.7002 215.1 79.7002C225.4 79.7002 233.7 87.9998 233.7 98.2998C233.7 108.6 225.4 116.9 215.1 116.9Z" fill="#BDBDBD"/>
<path d="M215.1 83.7002C223.2 83.7002 229.7 90.1998 229.7 98.2998C229.7 106.4 223.2 112.9 215.1 112.9C207 112.9 200.5 106.4 200.5 98.2998C200.5 90.2998 207.1 83.7002 215.1 83.7002ZM215.1 75.7002C202.6 75.7002 192.5 85.7998 192.5 98.2998C192.5 110.8 202.6 120.9 215.1 120.9C227.6 120.9 237.7 110.8 237.7 98.2998C237.7 85.8998 227.6 75.7002 215.1 75.7002Z" fill="#1D1D1D"/>
<path fill-rule="evenodd" clip-rule="evenodd" d="M69.0986 43.9004C62.8986 43.9004 57.7988 38.8006 57.7988 32.6006C57.7988 26.4006 62.8986 21.2998 69.0986 21.2998C75.2986 21.2998 80.3989 26.4006 80.3989 32.6006C80.3989 38.8006 75.2986 43.9004 69.0986 43.9004Z" fill="#BDBDBD"/>
<path d="M69.0986 25.2998C73.0986 25.2998 76.3989 28.6006 76.3989 32.6006C76.3989 36.6006 73.0986 39.9004 69.0986 39.9004C65.0986 39.9004 61.7988 36.6006 61.7988 32.6006C61.7988 28.6006 65.0986 25.2998 69.0986 25.2998ZM69.0986 17.2998C60.6986 17.2998 53.7988 24.2006 53.7988 32.6006C53.7988 41.0006 60.6986 47.9004 69.0986 47.9004C77.4986 47.9004 84.3989 41.0006 84.3989 32.6006C84.3989 24.2006 77.4986 17.2998 69.0986 17.2998Z" fill="#1D1D1D"/>
<path fill-rule="evenodd" clip-rule="evenodd" d="M178.599 153.4C172.399 153.4 167.299 148.301 167.299 142.101C167.299 135.901 172.399 130.8 178.599 130.8C184.799 130.8 189.899 135.901 189.899 142.101C189.899 148.301 184.899 153.4 178.599 153.4Z" fill="#BDBDBD"/>
<path d="M178.599 134.8C182.599 134.8 185.899 138.101 185.899 142.101C185.899 146.101 182.599 149.4 178.599 149.4C174.599 149.4 171.299 146.101 171.299 142.101C171.299 138.101 174.599 134.8 178.599 134.8ZM178.599 126.8C170.199 126.8 163.299 133.701 163.299 142.101C163.299 150.501 170.199 157.4 178.599 157.4C186.999 157.4 193.899 150.501 193.899 142.101C193.899 133.701 187.099 126.8 178.599 126.8Z" fill="#1D1D1D"/>
<path fill-rule="evenodd" clip-rule="evenodd" d="M120.2 168C101.9 168 87 153.1 87 134.8C87 116.5 101.9 101.601 120.2 101.601C138.5 101.601 153.4 116.5 153.4 134.8C153.4 153.1 138.5 168 120.2 168Z" fill="#BDBDBD"/>
<path d="M120.2 105.601C136.3 105.601 149.4 118.7 149.4 134.8C149.4 150.9 136.3 164 120.2 164C104.1 164 91 150.9 91 134.8C91 118.7 104.1 105.601 120.2 105.601ZM120.2 97.6006C99.7002 97.6006 83 114.3 83 134.8C83 155.3 99.7002 172 120.2 172C140.7 172 157.4 155.3 157.4 134.8C157.4 114.3 140.7 97.6006 120.2 97.6006Z" fill="#1D1D1D"/>
<path fill-rule="evenodd" clip-rule="evenodd" d="M105.6 233.8C95.3001 233.8 87 225.5 87 215.2C87 204.9 95.3001 196.601 105.6 196.601C115.9 196.601 124.2 204.9 124.2 215.2C124.2 225.4 115.9 233.8 105.6 233.8Z" fill="#BDBDBD"/>
<path d="M105.6 200.5C113.7 200.5 120.2 207.001 120.2 215.101C120.2 223.201 113.7 229.7 105.6 229.7C97.5001 229.7 91 223.201 91 215.101C91 207.101 97.6001 200.5 105.6 200.5ZM105.6 192.5C93.1001 192.5 83 202.601 83 215.101C83 227.601 93.1001 237.7 105.6 237.7C118.1 237.7 128.2 227.601 128.2 215.101C128.2 202.701 118.1 192.5 105.6 192.5Z" fill="#1D1D1D"/>
<path fill-rule="evenodd" clip-rule="evenodd" d="M90.999 87.7002C84.799 87.7002 79.6992 82.6004 79.6992 76.4004C79.6992 70.2004 84.799 65.1006 90.999 65.1006C97.199 65.1006 102.299 70.2004 102.299 76.4004C102.299 82.6004 97.199 87.7002 90.999 87.7002Z" fill="#BDBDBD"/>
<path d="M90.999 69.1006C94.999 69.1006 98.2993 72.4004 98.2993 76.4004C98.2993 80.4004 94.999 83.7002 90.999 83.7002C86.999 83.7002 83.6992 80.4004 83.6992 76.4004C83.6992 72.4004 86.999 69.1006 90.999 69.1006ZM90.999 61.1006C82.599 61.1006 75.6992 68.0004 75.6992 76.4004C75.6992 84.8004 82.599 91.7002 90.999 91.7002C99.399 91.7002 106.299 84.8004 106.299 76.4004C106.299 68.0004 99.499 61.1006 90.999 61.1006Z" fill="#1D1D1D"/>
<path fill-rule="evenodd" clip-rule="evenodd" d="M200.499 204.5C194.299 204.5 189.199 199.4 189.199 193.2C189.199 187 194.299 181.9 200.499 181.9C206.699 181.9 211.799 187 211.799 193.2C211.799 199.4 206.799 204.5 200.499 204.5Z" fill="#BDBDBD"/>
<path d="M200.499 185.9C204.499 185.9 207.799 189.2 207.799 193.2C207.799 197.2 204.499 200.5 200.499 200.5C196.499 200.5 193.199 197.2 193.199 193.2C193.199 189.2 196.499 185.9 200.499 185.9ZM200.499 177.9C192.099 177.9 185.199 184.8 185.199 193.2C185.199 201.6 192.099 208.5 200.499 208.5C208.899 208.5 215.799 201.6 215.799 193.2C215.799 184.8 208.999 177.9 200.499 177.9Z" fill="#1D1D1D"/>
<path d="M54.499 138.8C60.7398 138.8 65.7993 133.741 65.7993 127.5C65.7993 121.259 60.7398 116.2 54.499 116.2C48.2582 116.2 43.1992 121.259 43.1992 127.5C43.1992 133.741 48.2582 138.8 54.499 138.8Z" fill="#BDBDBD"/>
<path d="M54.499 120.2C58.499 120.2 61.7993 123.5 61.7993 127.5C61.7993 131.5 58.499 134.8 54.499 134.8C50.499 134.8 47.1992 131.5 47.1992 127.5C47.1992 123.5 50.499 120.2 54.499 120.2ZM54.499 112.2C46.099 112.2 39.1992 119.1 39.1992 127.5C39.1992 135.9 46.099 142.8 54.499 142.8C62.899 142.8 69.7993 135.9 69.7993 127.5C69.7993 119.1 62.899 112.2 54.499 112.2Z" fill="#1D1D1D"/>
<path fill-rule="evenodd" clip-rule="evenodd" d="M178.599 29.2998C172.399 29.2998 167.299 24.2 167.299 18C167.299 11.8 172.399 6.7002 178.599 6.7002C184.799 6.7002 189.899 11.8 189.899 18C189.899 24.2 184.899 29.2998 178.599 29.2998Z" fill="#BDBDBD"/>
<path d="M178.599 10.7002C182.599 10.7002 185.899 14 185.899 18C185.899 22 182.599 25.2998 178.599 25.2998C174.599 25.2998 171.299 22 171.299 18C171.299 14 174.599 10.7002 178.599 10.7002ZM178.599 2.7002C170.199 2.7002 163.299 9.6 163.299 18C163.299 26.4 170.199 33.2998 178.599 33.2998C186.999 33.2998 193.899 26.4 193.899 18C193.899 9.6 187.099 2.7002 178.599 2.7002Z" fill="#1D1D1D"/>
</svg>
