<svg width="240" height="240" viewBox="0 0 240 240" fill="none" xmlns="http://www.w3.org/2000/svg">
<path d="M120.338 200.429L35.0496 151.591L120.338 102.754L205.627 151.591L120.338 200.429Z" fill="#7895CF" stroke="#1D1D1D" stroke-width="8"/>
<path d="M120.326 176.945L76.0496 151.591L120.326 126.238L164.602 151.591L120.326 176.945Z" fill="#1D1D1D" stroke="#1D1D1D" stroke-width="8"/>
<path d="M67.5996 86.6001L99.4998 86.7L99.3997 23H139.9L140 86.7L171.9 86.8L119.8 138.8L67.5996 86.6001Z" fill="#BDBDBD"/>
<path d="M103.5 27H136L136.1 90.7H162.3L119.9 133.1L77.3999 90.6001H103.6L103.5 27ZM95.3999 19V27L95.5 82.6001H77.3H58L71.7 96.3L114.2 138.8L119.9 144.5L125.6 138.8L168 96.4001L181.6 82.8H162.3H144L143.9 27.1001V19.1001H135.9H103.4L95.3999 19Z" fill="#1D1D1D"/>
</svg>
