<svg width="240" height="241" viewBox="0 0 240 241" fill="none" xmlns="http://www.w3.org/2000/svg">
<path d="M120.338 202.176L35.0496 153.339L120.338 104.501L205.627 153.339L120.338 202.176Z" fill="#BDBDBD" stroke="#1D1D1D" stroke-width="8"/>
<path d="M120.338 170.176L35.0496 121.338L120.338 72.5008L205.627 121.338L120.338 170.176Z" fill="#BDBDBD" stroke="#1D1D1D" stroke-width="8"/>
<path d="M120.338 138.176L35.0496 89.3379L120.338 40.5003L205.627 89.3379L120.338 138.176Z" fill="#7895CF" stroke="#1D1D1D" stroke-width="8"/>
<circle cx="179.002" cy="60.9999" r="14.6" fill="#D9D9D9" stroke="#1D1D1D" stroke-width="8"/>
<path d="M194.799 61.0002C194.799 69.7263 187.725 76.8002 178.999 76.8002C170.273 76.8002 163.199 69.7263 163.199 61.0002C163.199 52.2741 170.273 45.2002 178.999 45.2002C187.725 45.2002 194.799 52.2741 194.799 61.0002ZM178.999 96.8002C198.771 96.8002 214.799 80.772 214.799 61.0002C214.799 41.2284 198.771 25.2002 178.999 25.2002C159.227 25.2002 143.199 41.2284 143.199 61.0002C143.199 80.772 159.227 96.8002 178.999 96.8002Z" fill="#D9D9D9" stroke="#1D1D1D" stroke-width="8"/>
<path d="M216 61C216 81.4345 199.435 98 179 98C158.565 98 142 81.4345 142 61C142 40.5655 158.565 24 179 24C199.435 24 216 40.5655 216 61ZM179 118C210.48 118 236 92.4802 236 61C236 29.5198 210.48 4 179 4C147.52 4 122 29.5198 122 61C122 92.4802 147.52 118 179 118Z" fill="#D9D9D9" stroke="#1D1D1D" stroke-width="8"/>
</svg>
