<svg width="240" height="240" viewBox="0 0 240 240" fill="none" xmlns="http://www.w3.org/2000/svg">
<rect x="75" y="75" width="90" height="90" fill="#BDBDBD" stroke="#1D1D1D" stroke-width="8"/>
<mask id="path-2-inside-1_957_1637" fill="white">
<path fill-rule="evenodd" clip-rule="evenodd" d="M162.994 64L119.999 21.0049L77.0037 64H162.994ZM176 77.006V162.994L218.994 120L176 77.006ZM162.994 176H77.0041L119.999 218.995L162.994 176ZM64 162.996V77.0037L21.0039 120L64 162.996Z"/>
</mask>
<path fill-rule="evenodd" clip-rule="evenodd" d="M162.994 64L119.999 21.0049L77.0037 64H162.994ZM176 77.006V162.994L218.994 120L176 77.006ZM162.994 176H77.0041L119.999 218.995L162.994 176ZM64 162.996V77.0037L21.0039 120L64 162.996Z" fill="#7895CF"/>
<path d="M119.999 21.0049L125.656 15.348L119.999 9.69117L114.342 15.348L119.999 21.0049ZM162.994 64V72H182.308L168.651 58.3431L162.994 64ZM77.0037 64L71.3469 58.3431L57.69 72H77.0037V64ZM176 77.006L181.657 71.3492L168 57.6923V77.006H176ZM176 162.994H168V182.307L181.657 168.65L176 162.994ZM218.994 120L224.651 125.657L230.308 120L224.651 114.343L218.994 120ZM162.994 176L168.65 181.657L182.307 168H162.994V176ZM77.0041 176V168H57.6904L71.3472 181.657L77.0041 176ZM119.999 218.995L114.342 224.652L119.999 230.308L125.656 224.652L119.999 218.995ZM64 162.996L58.3431 168.653L72 182.31V162.996H64ZM64 77.0037H72V57.69L58.3431 71.3469L64 77.0037ZM21.0039 120L15.3471 114.343L9.6902 120L15.3471 125.657L21.0039 120ZM114.342 26.6617L157.337 69.6569L168.651 58.3431L125.656 15.348L114.342 26.6617ZM82.6606 69.6569L125.656 26.6617L114.342 15.348L71.3469 58.3431L82.6606 69.6569ZM77.0037 72H162.994V56H77.0037V72ZM168 77.006V162.994H184V77.006H168ZM213.337 114.343L170.343 157.337L181.657 168.65L224.651 125.657L213.337 114.343ZM170.343 82.6629L213.337 125.657L224.651 114.343L181.657 71.3492L170.343 82.6629ZM162.994 168H77.0041V184H162.994V168ZM125.656 213.338L82.6609 170.343L71.3472 181.657L114.342 224.652L125.656 213.338ZM157.337 170.343L114.342 213.338L125.656 224.652L168.65 181.657L157.337 170.343ZM72 162.996V77.0037H56V162.996H72ZM26.6608 125.657L69.6569 82.6606L58.3431 71.3469L15.3471 114.343L26.6608 125.657ZM69.6569 157.339L26.6608 114.343L15.3471 125.657L58.3431 168.653L69.6569 157.339Z" fill="#1D1D1D" mask="url(#path-2-inside-1_957_1637)"/>
</svg>
