<svg width="240" height="240" viewBox="0 0 240 240" fill="none" xmlns="http://www.w3.org/2000/svg">
<path fill-rule="evenodd" clip-rule="evenodd" d="M119.7 25C88.3855 25 63 50.3854 63 81.7V157.3C63 188.615 88.3855 214 119.7 214C151.015 214 176.4 188.615 176.4 157.3V81.7C176.4 50.3854 151.015 25 119.7 25ZM120 41C97.9086 41 80 58.9086 80 81V158C80 180.091 97.9086 198 120 198C142.091 198 160 180.091 160 158V81C160 58.9086 142.091 41 120 41Z" fill="#1D1D1D"/>
<rect x="59" y="21" width="122" height="196" rx="61" stroke="#1D1D1D" stroke-width="8"/>
<rect x="67" y="29" width="106" height="180" rx="53" fill="#7895CF" stroke="#7895CF" stroke-width="8"/>
<path d="M181 113C181 121.837 153.689 129 120 129C86.3106 129 59 121.837 59 113" stroke="#1D1D1D" stroke-width="8"/>
<path d="M129.758 12.7532C123.276 12.7532 118.021 18.0077 118.021 24.4894C118.021 30.9712 123.276 36.2257 129.758 36.2257H222.565C229.047 36.2257 234.302 30.9712 234.302 24.4894C234.302 18.0077 229.047 12.7532 222.565 12.7532H129.758Z" fill="#BDBDBD" stroke="#1D1D1D" stroke-width="8"/>
<path d="M193.01 43.945C203.763 43.945 212.478 35.2259 212.478 24.4725C212.478 13.7191 203.763 5 193.01 5C182.256 5 173.541 13.7191 173.541 24.4725C173.541 35.2259 182.256 43.945 193.01 43.945Z" fill="#BDBDBD" stroke="#1D1D1D" stroke-width="8"/>
<path d="M129.736 55.7605C123.254 55.7605 118 61.015 118 67.4967C118 73.9785 123.254 79.233 129.736 79.233H222.544C229.026 79.233 234.28 73.9785 234.28 67.4967C234.28 61.015 229.026 55.7605 222.544 55.7605H129.736Z" fill="#BDBDBD" stroke="#1D1D1D" stroke-width="8"/>
<path d="M159.32 86.3578C170.073 86.3578 178.789 77.6387 178.789 66.8853C178.789 56.1319 170.073 47.4128 159.32 47.4128C148.567 47.4128 139.852 56.1319 139.852 66.8853C139.852 77.6387 148.567 86.3578 159.32 86.3578Z" fill="#BDBDBD" stroke="#1D1D1D" stroke-width="8"/>
</svg>
