<svg width="241" height="242" viewBox="0 0 241 242" fill="none" xmlns="http://www.w3.org/2000/svg">
<path fill-rule="evenodd" clip-rule="evenodd" d="M119.7 27C88.3855 27 63 52.3854 63 83.7V159.3C63 190.615 88.3855 216 119.7 216C151.015 216 176.4 190.615 176.4 159.3V83.7C176.4 52.3854 151.015 27 119.7 27ZM120 43C97.9086 43 80 60.9086 80 83V160C80 182.091 97.9086 200 120 200C142.091 200 160 182.091 160 160V83C160 60.9086 142.091 43 120 43Z" fill="#1D1D1D"/>
<rect x="59" y="23" width="122" height="196" rx="61" stroke="#1D1D1D" stroke-width="8"/>
<rect x="67" y="31" width="106" height="180" rx="53" fill="#7895CF" stroke="#7895CF" stroke-width="8"/>
<path d="M181 115C181 123.837 153.689 131 120 131C86.3106 131 59 123.837 59 115" stroke="#1D1D1D" stroke-width="8"/>
<path d="M135.176 48.2008L132.327 51.0412L135.184 53.8736L167.423 85.8404L170.241 88.6344L173.057 85.839L231.818 27.5146L234.671 24.6823L231.824 21.8433L221.119 11.1676L218.302 8.35908L215.478 11.1596L170.235 56.0196L151.518 37.5131L148.694 34.7206L145.881 37.5251L135.176 48.2008Z" fill="#BDBDBD" stroke="#1D1D1D" stroke-width="8"/>
</svg>
