<svg width="240" height="240" viewBox="0 0 240 240" fill="none" xmlns="http://www.w3.org/2000/svg">
<path d="M210.699 60.8H226.819V157H214.209L212.519 149.46C207.969 155.05 201.989 158.69 193.539 158.69C177.419 158.69 166.109 145.82 166.109 126.06V118.78C166.109 99.8 177.549 86.0201 194.319 86.0201C201.079 86.0201 206.279 88.1 210.699 92.13V60.8ZM196.399 146.6C202.769 146.6 207.059 143.48 210.699 138.54V103.96C207.839 100.84 203.029 98.24 197.049 98.24C187.819 98.24 182.229 105.26 182.229 118.39V126.32C182.229 140.1 187.689 146.6 196.399 146.6Z" fill="#7895CF"/>
<path d="M133.83 158.69C122.13 158.69 112.25 155.18 105.23 149.2L112.9 139.97C118.62 144.26 124.6 146.73 132.4 146.73C140.59 146.73 145.53 144.39 145.53 139.19V138.15C145.53 133.6 143.06 131.52 133.96 128.4L125.25 125.41C114.46 121.51 108.61 116.31 108.61 107.6V104.74C108.61 93.69 119.53 86.02 134.87 86.02C144.75 86.02 154.24 89.27 160.87 94.73L153.46 103.57C146.57 99.15 141.63 97.98 135.39 97.98C128.11 97.98 124.73 100.97 124.73 104.61V105.65C124.73 109.29 127.07 111.63 135.91 114.75L144.62 117.74C154.5 121.25 161.52 125.8 161.52 136.33V139.19C161.52 152.06 148.78 158.69 133.83 158.69Z" fill="#7895CF"/>
<path d="M82.2298 87.8401H98.3498V157H84.6998L83.5298 149.33C78.1998 155.18 71.1798 158.69 62.7298 158.69C50.5098 158.69 40.7598 150.63 40.7598 137.63V87.8401H56.8798V136.85C56.8798 143.09 60.2598 146.6 66.6298 146.6C72.4798 146.6 78.1998 143.35 82.2298 137.76V87.8401Z" fill="#7895CF"/>
<path d="M20.5239 158.69C14.8039 158.69 10.2539 154.14 10.2539 148.42C10.2539 142.83 14.8039 138.15 20.5239 138.15C26.2439 138.15 30.6639 142.83 30.6639 148.42C30.6639 154.14 26.2439 158.69 20.5239 158.69Z" fill="#7895CF"/>
<path fill-rule="evenodd" clip-rule="evenodd" d="M202.699 52.8H234.819V165H207.804L207.493 163.615C203.48 165.562 198.856 166.69 193.539 166.69C183.198 166.69 174.091 162.492 167.688 154.971C164.838 151.624 162.611 147.727 161.023 143.414C161.349 142.09 161.521 140.682 161.521 139.19V136.33C161.521 132.016 160.343 128.706 158.272 126.06C158.219 125.991 158.164 125.923 158.109 125.855V118.78C158.109 107.717 161.449 97.5911 167.836 90.0945C174.304 82.502 183.579 78.0201 194.319 78.0201C197.287 78.0201 200.076 78.3446 202.699 78.9889V52.8ZM210.699 92.13C208.303 89.9454 205.678 88.3338 202.699 87.316C200.183 86.4562 197.415 86.0201 194.319 86.0201C177.549 86.0201 166.109 99.8 166.109 118.78V126.06C166.109 145.82 177.419 158.69 193.539 158.69C198.31 158.69 202.294 157.53 205.678 155.513C208.286 153.958 210.538 151.894 212.519 149.46L214.209 157H226.819V60.8H210.699V92.13ZM210.699 138.54V103.96C207.839 100.84 203.029 98.24 197.049 98.24C187.819 98.24 182.229 105.26 182.229 118.39V126.32C182.229 140.1 187.689 146.6 196.399 146.6C202.769 146.6 207.059 143.48 210.699 138.54ZM196.399 138.6C198.811 138.6 200.673 137.861 202.699 135.695V107.706C201.241 106.862 199.328 106.24 197.049 106.24C194.697 106.24 193.469 107.006 192.574 108.196C191.44 109.706 190.229 112.805 190.229 118.39V126.32C190.229 132.34 191.452 135.468 192.5 136.898C193.269 137.947 194.277 138.6 196.399 138.6Z" fill="#1D1D1D"/>
<path fill-rule="evenodd" clip-rule="evenodd" d="M98.3496 153.848L100.043 155.29C108.735 162.694 120.547 166.69 133.831 166.69C142.342 166.69 150.91 164.825 157.624 160.485C163.764 156.517 168.294 150.449 169.307 142.573C168.831 141.492 168.404 140.363 168.029 139.19C167.734 138.264 167.47 137.31 167.241 136.33C166.5 133.171 166.109 129.734 166.109 126.06V123.352C165.071 121.642 163.809 120.076 162.338 118.653C160.272 116.654 157.898 115.042 155.408 113.7L172.186 93.6847L165.956 88.5546C157.729 81.7789 146.38 78.02 134.871 78.02C125.959 78.02 117.663 80.2373 111.358 84.7126C104.904 89.293 100.611 96.267 100.611 104.74V107.6C100.611 114.014 102.869 119.507 107.163 123.901C111.191 128.022 116.646 130.807 122.531 132.934L122.592 132.956L131.366 135.968C133.521 136.706 135.082 137.316 136.226 137.85C136.57 138.011 136.854 138.154 137.087 138.279C136.898 138.326 136.685 138.373 136.443 138.418C135.425 138.608 134.088 138.73 132.401 138.73C126.61 138.73 122.277 137.002 117.701 133.57L111.612 129.004L98.3496 144.963V153.848ZM151.563 111.857L149.141 110.304C143.535 106.707 140.093 105.98 135.391 105.98C135.384 105.98 135.377 105.98 135.37 105.98C136.242 106.349 137.288 106.752 138.541 107.195L147.258 110.187L147.299 110.202C148.705 110.701 150.137 111.247 151.563 111.857ZM135.911 114.75C127.071 111.63 124.731 109.29 124.731 105.65V104.61C124.731 100.97 128.111 97.98 135.391 97.98C141.631 97.98 146.571 99.15 153.461 103.57L160.871 94.73C158.849 93.065 156.561 91.6055 154.077 90.381C148.416 87.5901 141.738 86.02 134.871 86.02C119.531 86.02 108.611 93.69 108.611 104.74V107.6C108.611 116.31 114.461 121.51 125.251 125.41L133.961 128.4C143.061 131.52 145.531 133.6 145.531 138.15V139.19C145.531 144.39 140.591 146.73 132.401 146.73C124.601 146.73 118.621 144.26 112.901 139.97L105.231 149.2C105.443 149.381 105.657 149.559 105.875 149.735C107.707 151.22 109.722 152.543 111.904 153.686C118.029 156.895 125.464 158.69 133.831 158.69C148.781 158.69 161.521 152.06 161.521 139.19V136.33C161.521 125.8 154.501 121.25 144.621 117.74L135.911 114.75Z" fill="#1D1D1D"/>
<path fill-rule="evenodd" clip-rule="evenodd" d="M82.2298 87.8401V137.76C78.1998 143.35 72.4798 146.6 66.6298 146.6C60.2598 146.6 56.8798 143.09 56.8798 136.85V87.8401H40.7598V137.63C40.7598 150.63 50.5098 158.69 62.7298 158.69C67.7943 158.69 72.3452 157.429 76.3264 155.159C78.9877 153.642 81.3943 151.674 83.5298 149.33L84.6998 157H98.3498V87.8401H82.2298ZM77.5976 163.493C73.1356 165.548 68.1547 166.69 62.7298 166.69C54.8761 166.69 47.3739 164.089 41.7521 158.928C36.0525 153.696 32.7598 146.254 32.7598 137.63V79.8401H64.8798V136.85C64.8798 137.729 64.9962 138.197 65.0739 138.408C65.2863 138.485 65.7541 138.6 66.6298 138.6C68.9394 138.6 71.7272 137.515 74.2298 134.903V79.8401H106.35V147.853L105.231 149.2C105.596 149.511 105.969 149.816 106.35 150.113V165H77.8276L77.5976 163.493ZM64.9277 138.337C64.9287 138.336 64.9433 138.344 64.9684 138.363C64.9392 138.348 64.9266 138.338 64.9277 138.337ZM65.1201 138.515C65.1362 138.537 65.1425 138.549 65.1417 138.55C65.1409 138.551 65.1329 138.54 65.1201 138.515Z" fill="#1D1D1D"/>
<path fill-rule="evenodd" clip-rule="evenodd" d="M10.2539 148.42C10.2539 154.14 14.8039 158.69 20.5239 158.69C26.2439 158.69 30.6639 154.14 30.6639 148.42C30.6639 142.83 26.2439 138.15 20.5239 138.15C14.8039 138.15 10.2539 142.83 10.2539 148.42ZM20.5239 166.69C10.3856 166.69 2.25391 158.558 2.25391 148.42C2.25391 138.478 10.3199 130.15 20.5239 130.15C30.8602 130.15 38.6639 138.613 38.6639 148.42C38.6639 158.424 30.7951 166.69 20.5239 166.69Z" fill="#1D1D1D"/>
</svg>
