<svg width="243" height="240" viewBox="0 0 243 240" fill="none" xmlns="http://www.w3.org/2000/svg">
<rect x="120" y="64.8456" width="78" height="78" transform="rotate(45 120 64.8456)" fill="#BDBDBD" stroke="#1D1D1D" stroke-width="8"/>
<path d="M120 215H124V211V203V199H120C104.375 199 89.1015 194.367 76.11 185.686C63.1185 177.006 52.9929 164.667 47.0136 150.232C41.0342 135.797 39.4698 119.912 42.518 104.588C45.5662 89.2634 53.0903 75.187 64.1386 64.1386C75.187 53.0903 89.2634 45.5662 104.588 42.518C119.912 39.4698 135.797 41.0342 150.232 47.0136C164.667 52.9929 177.006 63.1185 185.686 76.11C193.438 87.7117 197.962 101.134 198.842 115H187H179.227L183.745 121.325L203.745 149.325L207 153.882L210.255 149.325L230.255 121.325L234.772 115H227H214.868C213.971 97.9664 208.5 81.4545 198.99 67.2209C188.551 51.5982 173.714 39.4218 156.355 32.2315C138.996 25.0412 119.895 23.1598 101.466 26.8254C83.0383 30.491 66.1109 39.5389 52.8249 52.8249C39.5389 66.1109 30.491 83.0383 26.8254 101.466C23.1598 119.895 25.0412 138.996 32.2315 156.355C39.4218 173.714 51.5982 188.551 67.2209 198.99C82.8435 209.428 101.211 215 120 215Z" fill="#7895CF" stroke="#1D1D1D" stroke-width="8"/>
</svg>
