<svg width="240" height="240" viewBox="0 0 240 240" fill="none" xmlns="http://www.w3.org/2000/svg">
<path d="M49 64.8333H53V60.8333V53H60.8333H64.8333V49V41V37H60.8333H41H37V41V60.8333V64.8333H41H49ZM80.5 49V53H84.5H108.167H112.167V49V41V37H108.167H84.5H80.5V41V49ZM127.833 49V53H131.833H155.5H159.5V49V41V37H155.5H131.833H127.833V41V49ZM175.167 49V53H179.167H187V60.8333V64.8333H191H199H203V60.8333V41V37H199H179.167H175.167V41V49ZM191 80.5H187V84.5V108.167V112.167H191H199H203V108.167V84.5V80.5H199H191ZM191 127.833H187V131.833V155.5V159.5H191H199H203V155.5V131.833V127.833H199H191ZM191 175.167H187V179.167V187H179.167H175.167V191V199V203H179.167H199H203V199V179.167V175.167H199H191ZM53 84.5V80.5H49H41H37V84.5V108.167V112.167H41H49H53V108.167V84.5ZM53 131.833V127.833H49H41H37V131.833V155.5V159.5H41H49H53V155.5V131.833ZM53 179.167V175.167H49H41H37V179.167V199V203H41H60.8333H64.8333V199V191V187H60.8333H53V179.167ZM84.5 187H80.5V191V199V203H84.5H108.167H112.167V199V191V187H108.167H84.5ZM131.833 187H127.833V191V199V203H131.833H155.5H159.5V199V191V187H155.5H131.833Z" fill="#7895CF" stroke="#1D1D1D" stroke-width="8"/>
<rect x="37" y="112" width="91" height="91" fill="#BDBDBD" stroke="#1D1D1D" stroke-width="8"/>
<mask id="path-3-inside-1_957_1609" fill="white">
<path fill-rule="evenodd" clip-rule="evenodd" d="M132 84H96V108H132V144H156V108V84H132Z"/>
</mask>
<path fill-rule="evenodd" clip-rule="evenodd" d="M132 84H96V108H132V144H156V108V84H132Z" fill="#7895CF"/>
<path d="M96 84V76H88V84H96ZM96 108H88V116H96V108ZM132 108H140V100H132V108ZM132 144H124V152H132V144ZM156 144V152H164V144H156ZM156 84H164V76H156V84ZM96 92H132V76H96V92ZM104 108V84H88V108H104ZM132 100H96V116H132V100ZM140 144V108H124V144H140ZM156 136H132V152H156V136ZM148 108V144H164V108H148ZM148 84V108H164V84H148ZM132 92H156V76H132V92Z" fill="#1D1D1D" mask="url(#path-3-inside-1_957_1609)"/>
</svg>
