<svg width="240" height="240" viewBox="0 0 240 240" fill="none" xmlns="http://www.w3.org/2000/svg">
<path fill-rule="evenodd" clip-rule="evenodd" d="M139.068 34.3162L194.749 53.5836V119.286L214.999 125.96V38.7035L139.068 13V34.3162Z" fill="#7895CF"/>
<path fill-rule="evenodd" clip-rule="evenodd" d="M131.068 40.0134V1.84595L222.999 32.9657V137.021L186.749 125.073V59.2807L131.068 40.0134ZM194.749 53.5836V119.286L214.999 125.96V38.7036L139.068 13V34.3162L194.749 53.5836Z" fill="#1D1D1D"/>
<path fill-rule="evenodd" clip-rule="evenodd" d="M81.6895 46.3894L165.043 75.2323V169.142L185.292 176.017V60.3507L81.6895 24.501V46.3894Z" fill="#7895CF"/>
<path fill-rule="evenodd" clip-rule="evenodd" d="M73.6895 52.0865V13.2673L193.292 54.6535V187.181L157.043 174.875V80.9295L73.6895 52.0865ZM165.043 75.2323V169.142L185.292 176.017V60.3507L81.6895 24.501V46.3894L165.043 75.2323Z" fill="#1D1D1D"/>
<path fill-rule="evenodd" clip-rule="evenodd" d="M25 36.6765V182.105L155.6 226.748V81.996L25 36.6765ZM49.3008 164.289V73.2026L130.968 101.588V146.919V192.251L49.3008 164.289ZM60.0995 155.758V88.7603L120.169 109.639V142.982V176.325L60.0995 155.758Z" fill="#7895CF"/>
<path fill-rule="evenodd" clip-rule="evenodd" d="M17 187.825V25.4325L163.6 76.3041V237.937L17 187.825ZM130.968 101.588V192.251L49.3008 164.289V73.2026L130.968 101.588ZM25 182.105V36.6765L155.6 81.996V226.748L25 182.105ZM60.0995 155.758V88.7604L120.169 109.639V176.325L60.0995 155.758Z" fill="#1D1D1D"/>
<mask id="path-7-inside-1_956_975" fill="white">
<path fill-rule="evenodd" clip-rule="evenodd" d="M232 134C234.695 134 237.363 134.117 240 134.347V239.785H142.195C141.408 234.973 141 230.034 141 225C141 174.742 181.742 134 232 134Z"/>
</mask>
<path fill-rule="evenodd" clip-rule="evenodd" d="M232 134C234.695 134 237.363 134.117 240 134.347V239.785H142.195C141.408 234.973 141 230.034 141 225C141 174.742 181.742 134 232 134Z" fill="#232932"/>
<path d="M240 134.347H248V127.013L240.694 126.377L240 134.347ZM240 239.785V247.785H248V239.785H240ZM142.195 239.785L134.3 241.077L135.398 247.785H142.195V239.785ZM240.694 126.377C237.827 126.127 234.927 126 232 126V142C234.463 142 236.9 142.107 239.306 142.317L240.694 126.377ZM248 239.785V134.347H232V239.785H248ZM142.195 247.785H240V231.785H142.195V247.785ZM133 225C133 230.467 133.443 235.838 134.3 241.077L150.09 238.494C149.373 234.108 149 229.601 149 225H133ZM232 126C177.324 126 133 170.324 133 225H149C149 179.16 186.16 142 232 142V126Z" fill="#232932" mask="url(#path-7-inside-1_956_975)"/>
<path d="M203.647 236L188 181H201.682L212.643 225.236L222.62 181H236L221.26 236H203.647Z" fill="#BDBDBD"/>
<path fill-rule="evenodd" clip-rule="evenodd" d="M232 142C234.699 142 237.367 142.129 240 142.381V152.433C237.373 152.147 234.704 152 232 152C191.683 152 159 184.683 159 225C159 230.141 159.532 235.159 160.543 240H150.352C149.464 235.135 149 230.122 149 225C149 179.16 186.16 142 232 142Z" fill="#BDBDBD"/>
</svg>
