<svg width="240" height="240" viewBox="0 0 240 240" fill="none" xmlns="http://www.w3.org/2000/svg">
<path d="M104.5 139.6V49.5996H77.5L119.5 7.09961L161.5 49.5996H134.5V139.6H104.5Z" fill="#7895CF"/>
<path d="M119.5 14.1992L149.5 44.5996H129.5V134.6H109.5V44.5996H89.4996L119.5 14.1992ZM119.5 0L112.4 7.19922L82.3997 37.5996L65.5996 54.5996H89.4996H99.4996V134.6V144.6H109.5H129.5H139.5V134.6V54.5996H149.5H173.4L156.6 37.5996L126.6 7.19922L119.5 0Z" fill="#1D1D1D"/>
<path d="M13.1992 185.899L30.7992 128.8L43.5992 152.6L122.899 110L137.099 136.399L57.7993 179L70.4992 202.8L13.1992 185.899Z" fill="#7895CF"/>
<path d="M120.8 116.8L130.3 134.399L51 177L60.5 194.6L19.5 182.6L32.1 141.8L41.6 159.399L120.8 116.8ZM124.9 103.199L116.1 107.899L45.6 145.8L40.9 137L29.6 115.899L22.6 138.8L10 179.6L7 189.3L16.7 192.199L57.7 204.199L80.7 210.899L69.4 189.8L64.7 181L135.2 143.1L144 138.399L139.3 129.6L129.8 112L124.9 103.199Z" fill="#1D1D1D"/>
<path d="M85.6701 185.928L89.1575 187.887L91.1166 184.4L95.0346 177.425L96.9937 173.937L93.5062 171.978C84.1946 166.748 76.6432 158.873 71.8069 149.351C66.9706 139.828 65.0667 129.086 66.3358 118.481C67.6049 107.877 71.9902 97.8865 78.937 89.7743C85.8838 81.662 95.0802 75.7919 105.363 72.9063C115.646 70.0207 126.554 70.2491 136.707 73.5627C146.86 76.8763 155.803 83.1262 162.404 91.5222C168.028 98.6761 171.738 107.114 173.222 116.042L166.874 116.5L159.121 117.061L164.083 123.043L180.056 142.304L183.631 146.614L186.549 141.834L199.587 120.478L203.638 113.844L195.885 114.404L189.233 114.885C187.483 102.771 182.58 91.2978 174.982 81.6331C166.425 70.7494 154.833 62.6476 141.671 58.3522C128.51 54.0568 114.37 53.7607 101.04 57.5014C87.7104 61.242 75.7892 68.8514 66.7841 79.3672C57.7789 89.8831 52.0944 102.833 50.4492 116.58C48.804 130.326 51.2721 144.252 57.5413 156.596L61.0308 154.824L57.5413 156.596C63.8106 168.94 73.5995 179.147 85.6701 185.928Z" fill="#BDBDBD" stroke="#1D1D1D" stroke-width="8"/>
<path d="M181.999 179L102.699 136.399L116.899 110L196.199 152.6L208.999 128.8L226.599 185.899L169.299 202.8L181.999 179Z" fill="#7895CF"/>
<path d="M119 116.8L198.3 159.399L207.8 141.8L220.4 182.6L179.4 194.6L188.9 177L109.6 134.399L119 116.8ZM114.9 103.199L110.2 112L100.7 129.6L96 138.399L104.8 143.1L175.3 181L170.6 189.8L159.3 210.899L182.3 204.199L223.3 192.199L233 189.3L230 179.6L217.4 138.8L210.4 115.899L199.1 137L194.4 145.8L123.9 107.899L114.9 103.199Z" fill="#1D1D1D"/>
<path d="M79.5 124.6C79.5 146.691 97.4086 164.6 119.5 164.6C141.591 164.6 159.5 146.691 159.5 124.6C159.5 102.508 141.591 84.5996 119.5 84.5996C97.4086 84.5996 79.5 102.508 79.5 124.6Z" fill="#1D1D1D"/>
<path d="M119.5 104.6C130.546 104.6 139.5 113.554 139.5 124.6V124.6C139.5 135.645 130.546 144.6 119.5 144.6V144.6C108.454 144.6 99.5 135.645 99.5 124.6V124.6C99.5 113.554 108.454 104.6 119.5 104.6V104.6ZM149.5 124.6C149.5 108.031 136.069 94.5996 119.5 94.5996V94.5996C102.931 94.5996 89.5 108.031 89.5 124.6V124.6C89.5 141.168 102.931 154.6 119.5 154.6V154.6C136.069 154.6 149.5 141.168 149.5 124.6V124.6Z" fill="#BDBDBD"/>
</svg>
