<svg width="240" height="240" viewBox="0 0 240 240" fill="none" xmlns="http://www.w3.org/2000/svg">
<path fill-rule="evenodd" clip-rule="evenodd" d="M139.068 34.3162L194.749 53.5836V119.286L214.999 125.96V38.7035L139.068 13V34.3162Z" fill="#7895CF"/>
<path fill-rule="evenodd" clip-rule="evenodd" d="M131.068 40.0131V1.8457L222.999 32.9655V137.02L186.749 125.072V59.2805L131.068 40.0131ZM194.749 53.5833V119.286L214.999 125.96V38.7033L139.068 12.9998V34.316L194.749 53.5833Z" fill="#1D1D1D"/>
<path fill-rule="evenodd" clip-rule="evenodd" d="M81.6895 46.3894L165.043 75.2323V169.142L185.292 176.017V60.3507L81.6895 24.501V46.3894Z" fill="#7895CF"/>
<path fill-rule="evenodd" clip-rule="evenodd" d="M73.6895 52.0863V13.2671L193.292 54.6533V187.181L157.043 174.874V80.9292L73.6895 52.0863ZM165.043 75.2321V169.142L185.292 176.016V60.3504L81.6895 24.5007V46.3891L165.043 75.2321Z" fill="#1D1D1D"/>
<path fill-rule="evenodd" clip-rule="evenodd" d="M25 36.6763V182.104L155.6 226.748V81.9958L25 36.6763ZM49.3008 164.289V73.2023L130.968 101.587V146.919V192.251L49.3008 164.289ZM60.0995 155.758V88.7601L120.169 109.638V142.981V176.324L60.0995 155.758Z" fill="#BDBDBD"/>
<path fill-rule="evenodd" clip-rule="evenodd" d="M17 187.824V25.4321L163.6 76.3038V237.937L17 187.824ZM130.968 101.587V192.25L49.3008 164.289V73.2022L130.968 101.587ZM25 182.104V36.6762L155.6 81.9957V226.747L25 182.104Z" fill="#1D1D1D"/>
<path d="M130.968 101.587L49.3008 73.2022V164.289L130.968 192.25V101.587Z" fill="#1D1D1D"/>
</svg>
