<svg width="240" height="240" viewBox="0 0 240 240" fill="none" xmlns="http://www.w3.org/2000/svg">
<path d="M191 33V29H187H51H47V33V207V211H51H187H191V207V33Z" fill="#7895CF" stroke="#1D1D1D" stroke-width="8"/>
<path d="M165 71H73V79H165V71Z" fill="#1D1D1D"/>
<path d="M161 151V147H157H81H77V151V169V173H81H157H161V169V151Z" fill="#BDBDBD" stroke="#1D1D1D" stroke-width="8"/>
<path d="M165 95H73V103H165V95Z" fill="#1D1D1D"/>
<path d="M165 119H73V127H165V119Z" fill="#1D1D1D"/>
<path d="M230.828 162.828L233.657 160L230.828 157.172L198.828 125.172L192 118.343V128V147H168H164V151V169V173H168H192V192V201.657L198.828 194.828L230.828 162.828Z" fill="#BDBDBD" stroke="#1D1D1D" stroke-width="8"/>
<path d="M144.238 24.5975V27.446L146.93 28.3775L192.211 44.0461V95.2456V98.1118L194.925 99.0332L206.579 102.99L211.865 104.784V99.2021V32.6326V29.7841L209.173 28.8525L149.546 8.21991L144.238 6.38317V12V24.5975Z" fill="#BDBDBD" stroke="#1D1D1D" stroke-width="8"/>
<path d="M113.321 18.829L108.01 16.9859V22.6079V106.306V109.166L110.716 110.091L185.88 135.785L191.174 137.594V132V48.6907V45.8448L188.486 44.9118L113.321 18.829Z" fill="#BDBDBD" stroke="#1D1D1D" stroke-width="8"/>
<path d="M170.972 64.5202V61.6746L168.284 60.7414L133.464 48.6553L128.152 46.8115V52.4341V91.2825V94.1505L130.869 95.0709L165.688 106.869L170.972 108.66V103.081V64.5202Z" fill="#BDBDBD" stroke="#1D1D1D" stroke-width="8"/>
</svg>
