<svg width="240" height="240" viewBox="0 0 240 240" fill="none" xmlns="http://www.w3.org/2000/svg">
<path d="M210.699 100.8H226.819V197H214.209L212.519 189.46C207.969 195.05 201.989 198.69 193.539 198.69C177.419 198.69 166.109 185.82 166.109 166.06V158.78C166.109 139.8 177.549 126.02 194.319 126.02C201.079 126.02 206.279 128.1 210.699 132.13V100.8ZM196.399 186.6C202.769 186.6 207.059 183.48 210.699 178.54V143.96C207.839 140.84 203.029 138.24 197.049 138.24C187.819 138.24 182.229 145.26 182.229 158.39V166.32C182.229 180.1 187.689 186.6 196.399 186.6Z" fill="#BDBDBD"/>
<path d="M133.83 198.69C122.13 198.69 112.25 195.18 105.23 189.2L112.9 179.97C118.62 184.26 124.6 186.73 132.4 186.73C140.59 186.73 145.53 184.39 145.53 179.19V178.15C145.53 173.6 143.06 171.52 133.96 168.4L125.25 165.41C114.46 161.51 108.61 156.31 108.61 147.6V144.74C108.61 133.69 119.53 126.02 134.87 126.02C144.75 126.02 154.24 129.27 160.87 134.73L153.46 143.57C146.57 139.15 141.63 137.98 135.39 137.98C128.11 137.98 124.73 140.97 124.73 144.61V145.65C124.73 149.29 127.07 151.63 135.91 154.75L144.62 157.74C154.5 161.25 161.52 165.8 161.52 176.33V179.19C161.52 192.06 148.78 198.69 133.83 198.69Z" fill="#BDBDBD"/>
<path d="M82.2298 127.84H98.3498V197H84.6998L83.5298 189.33C78.1998 195.18 71.1798 198.69 62.7298 198.69C50.5098 198.69 40.7598 190.63 40.7598 177.63V127.84H56.8798V176.85C56.8798 183.09 60.2598 186.6 66.6298 186.6C72.4798 186.6 78.1998 183.35 82.2298 177.76V127.84Z" fill="#BDBDBD"/>
<path d="M20.5239 198.69C14.8039 198.69 10.2539 194.14 10.2539 188.42C10.2539 182.83 14.8039 178.15 20.5239 178.15C26.2439 178.15 30.6639 182.83 30.6639 188.42C30.6639 194.14 26.2439 198.69 20.5239 198.69Z" fill="#BDBDBD"/>
<path fill-rule="evenodd" clip-rule="evenodd" d="M202.699 92.8H234.819V205H207.804L207.493 203.615C203.48 205.562 198.856 206.69 193.539 206.69C183.198 206.69 174.091 202.492 167.688 194.971C164.838 191.624 162.611 187.727 161.023 183.414C161.349 182.09 161.521 180.682 161.521 179.19V176.33C161.521 172.016 160.343 168.706 158.272 166.06C158.219 165.991 158.164 165.923 158.109 165.855V158.78C158.109 147.717 161.449 137.591 167.836 130.094C174.304 122.502 183.579 118.02 194.319 118.02C197.287 118.02 200.076 118.345 202.699 118.989V92.8ZM210.699 132.13C208.303 129.945 205.678 128.334 202.699 127.316C200.183 126.456 197.415 126.02 194.319 126.02C177.549 126.02 166.109 139.8 166.109 158.78V166.06C166.109 185.82 177.419 198.69 193.539 198.69C198.31 198.69 202.294 197.53 205.678 195.513C208.286 193.958 210.538 191.894 212.519 189.46L214.209 197H226.819V100.8H210.699V132.13ZM210.699 178.54V143.96C207.839 140.84 203.029 138.24 197.049 138.24C187.819 138.24 182.229 145.26 182.229 158.39V166.32C182.229 180.1 187.689 186.6 196.399 186.6C202.769 186.6 207.059 183.48 210.699 178.54ZM196.399 178.6C198.811 178.6 200.673 177.861 202.699 175.695V147.706C201.241 146.862 199.328 146.24 197.049 146.24C194.697 146.24 193.469 147.006 192.574 148.196C191.44 149.706 190.229 152.805 190.229 158.39V166.32C190.229 172.34 191.452 175.468 192.5 176.898C193.269 177.947 194.277 178.6 196.399 178.6Z" fill="#1D1D1D"/>
<path fill-rule="evenodd" clip-rule="evenodd" d="M98.3496 193.848L100.043 195.29C108.735 202.694 120.547 206.69 133.831 206.69C142.342 206.69 150.91 204.825 157.624 200.485C163.764 196.517 168.294 190.449 169.307 182.573C168.831 181.492 168.404 180.363 168.029 179.19C167.734 178.264 167.47 177.31 167.241 176.33C166.5 173.171 166.109 169.734 166.109 166.06V163.352C165.071 161.642 163.809 160.076 162.338 158.653C160.272 156.654 157.898 155.042 155.408 153.7L172.186 133.685L165.956 128.555C157.729 121.779 146.38 118.02 134.871 118.02C125.959 118.02 117.663 120.237 111.358 124.713C104.904 129.293 100.611 136.267 100.611 144.74V147.6C100.611 154.014 102.869 159.507 107.163 163.901C111.191 168.022 116.646 170.807 122.531 172.934L122.592 172.956L131.366 175.968C133.521 176.706 135.082 177.316 136.226 177.85C136.57 178.011 136.854 178.154 137.087 178.279C136.898 178.326 136.685 178.373 136.443 178.418C135.425 178.608 134.088 178.73 132.401 178.73C126.61 178.73 122.277 177.002 117.701 173.57L111.612 169.004L98.3496 184.963V193.848ZM151.563 151.857L149.141 150.304C143.535 146.707 140.093 145.98 135.391 145.98C135.384 145.98 135.377 145.98 135.37 145.98C136.242 146.349 137.288 146.752 138.541 147.195L147.258 150.187L147.299 150.202C148.705 150.701 150.137 151.247 151.563 151.857ZM135.911 154.75C127.071 151.63 124.731 149.29 124.731 145.65V144.61C124.731 140.97 128.111 137.98 135.391 137.98C141.631 137.98 146.571 139.15 153.461 143.57L160.871 134.73C158.849 133.065 156.561 131.605 154.077 130.381C148.416 127.59 141.738 126.02 134.871 126.02C119.531 126.02 108.611 133.69 108.611 144.74V147.6C108.611 156.31 114.461 161.51 125.251 165.41L133.961 168.4C143.061 171.52 145.531 173.6 145.531 178.15V179.19C145.531 184.39 140.591 186.73 132.401 186.73C124.601 186.73 118.621 184.26 112.901 179.97L105.231 189.2C105.443 189.381 105.657 189.559 105.875 189.735C107.707 191.22 109.722 192.543 111.904 193.686C118.029 196.895 125.464 198.69 133.831 198.69C148.781 198.69 161.521 192.06 161.521 179.19V176.33C161.521 165.8 154.501 161.25 144.621 157.74L135.911 154.75Z" fill="#1D1D1D"/>
<path fill-rule="evenodd" clip-rule="evenodd" d="M82.2298 127.84V177.76C78.1998 183.35 72.4798 186.6 66.6298 186.6C60.2598 186.6 56.8798 183.09 56.8798 176.85V127.84H40.7598V177.63C40.7598 190.63 50.5098 198.69 62.7298 198.69C67.7943 198.69 72.3452 197.429 76.3264 195.159C78.9877 193.642 81.3943 191.674 83.5298 189.33L84.6998 197H98.3498V127.84H82.2298ZM77.5976 203.493C73.1356 205.548 68.1547 206.69 62.7298 206.69C54.8761 206.69 47.3739 204.089 41.7521 198.928C36.0525 193.696 32.7598 186.254 32.7598 177.63V119.84H64.8798V176.85C64.8798 177.729 64.9962 178.197 65.0739 178.408C65.2863 178.485 65.7541 178.6 66.6298 178.6C68.9394 178.6 71.7272 177.515 74.2298 174.903V119.84H106.35V187.853L105.231 189.2C105.596 189.511 105.969 189.816 106.35 190.113V205H77.8276L77.5976 203.493ZM64.9277 178.337C64.9287 178.336 64.9433 178.344 64.9684 178.363C64.9392 178.348 64.9266 178.338 64.9277 178.337ZM65.1201 178.515C65.1362 178.537 65.1425 178.549 65.1417 178.55C65.1409 178.551 65.1329 178.54 65.1201 178.515Z" fill="#1D1D1D"/>
<path fill-rule="evenodd" clip-rule="evenodd" d="M10.2539 188.42C10.2539 194.14 14.8039 198.69 20.5239 198.69C26.2439 198.69 30.6639 194.14 30.6639 188.42C30.6639 182.83 26.2439 178.15 20.5239 178.15C14.8039 178.15 10.2539 182.83 10.2539 188.42ZM20.5239 206.69C10.3856 206.69 2.25391 198.558 2.25391 188.42C2.25391 178.478 10.3199 170.15 20.5239 170.15C30.8602 170.15 38.6639 178.613 38.6639 188.42C38.6639 198.424 30.7951 206.69 20.5239 206.69Z" fill="#1D1D1D"/>
<path d="M66.6992 46.6001L98.5994 46.7L98.4993 7H138.999L139.099 46.7L170.999 46.8L118.899 98.8L66.6992 46.6001Z" fill="#BDBDBD"/>
<path d="M102.6 11H135.1L135.199 50.7H161.4L119 93.1001L76.4995 50.6001H102.699L102.6 11ZM94.4995 3V11L94.5996 42.6001H76.3997H57.0996L70.7996 56.3L113.3 98.8L119 104.5L124.699 98.8L167.1 56.4001L180.699 42.8H161.4H143.1L143 11.1001V3.1001H135H102.5L94.4995 3Z" fill="#1D1D1D"/>
</svg>
