<svg width="240" height="240" viewBox="0 0 240 240" fill="none" xmlns="http://www.w3.org/2000/svg">
<path fill-rule="evenodd" clip-rule="evenodd" d="M119.4 230L14 157.3L119.4 84.6997L224.8 157.3L119.4 230Z" fill="#7895CF"/>
<path fill-rule="evenodd" clip-rule="evenodd" d="M7 157.3L119.5 79.7998L232 157.3L119.4 234.9L7 157.3Z" fill="#7895CF"/>
<path d="M119.5 84.6997L224.9 157.3L119.4 230L14 157.3L119.5 84.6997ZM119.5 75L115 78.1001L9.59985 150.7L0 157.3L9.59985 163.9L115 236.6L119.5 239.7L124 236.6L229.5 163.9L239.1 157.3L229.5 150.7L124.1 78.1001L119.5 75Z" fill="#1D1D1D"/>
<path d="M63.5 118.4L175.6 196.4" stroke="#1D1D1D" stroke-width="8" stroke-miterlimit="10"/>
<path d="M175.9 118.9L63.0996 195.9" stroke="#1D1D1D" stroke-width="8" stroke-miterlimit="10"/>
<path d="M144.238 24.5975V27.446L146.93 28.3775L192.211 44.0461V95.2456V98.1118L194.925 99.0332L206.579 102.99L211.865 104.784V99.2021V32.6326V29.7841L209.173 28.8525L149.546 8.21991L144.238 6.38317V12V24.5975Z" fill="#BDBDBD" stroke="#1D1D1D" stroke-width="8"/>
<path d="M108.01 106.306V109.166L110.716 110.091L185.88 135.785L191.174 137.594V132V48.6907V45.8448L188.486 44.9118L113.321 18.829L108.01 16.9859V22.6079V106.306Z" fill="#BDBDBD" stroke="#1D1D1D" stroke-width="8"/>
<path d="M133.464 48.6553L128.152 46.8115V52.4341V91.2825V94.1505L130.869 95.0709L165.688 106.869L170.972 108.66V103.081V64.5202V61.6746L168.284 60.7414L133.464 48.6553Z" fill="#BDBDBD" stroke="#1D1D1D" stroke-width="8"/>
</svg>
