<svg width="240" height="240" viewBox="0 0 240 240" fill="none" xmlns="http://www.w3.org/2000/svg">
<path fill-rule="evenodd" clip-rule="evenodd" d="M139.068 34.3162L194.749 53.5836V119.286L214.999 125.96V38.7035L139.068 13V34.3162Z" fill="#BDBDBD"/>
<path fill-rule="evenodd" clip-rule="evenodd" d="M131.068 40.0131V1.8457L222.999 32.9655V137.02L186.749 125.072V59.2805L131.068 40.0131ZM194.749 53.5833V119.286L214.999 125.96V38.7033L139.068 12.9998V34.316L194.749 53.5833Z" fill="#1D1D1D"/>
<path fill-rule="evenodd" clip-rule="evenodd" d="M81.6895 46.3894L165.043 75.2323V169.142L185.292 176.017V60.3507L81.6895 24.501V46.3894Z" fill="#BDBDBD"/>
<path fill-rule="evenodd" clip-rule="evenodd" d="M73.6895 52.0863V13.2671L193.292 54.6533V187.181L157.043 174.874V80.9292L73.6895 52.0863ZM165.043 75.2321V169.142L185.292 176.016V60.3504L81.6895 24.5007V46.3891L165.043 75.2321Z" fill="#1D1D1D"/>
<path fill-rule="evenodd" clip-rule="evenodd" d="M25 36.6763V182.104L155.6 226.748V81.9958L25 36.6763ZM49.3008 164.289V73.2023L130.968 101.587V146.919V192.251L49.3008 164.289ZM60.0995 155.758V88.7601L120.169 109.638V142.981V176.324L60.0995 155.758Z" fill="#BDBDBD"/>
<path fill-rule="evenodd" clip-rule="evenodd" d="M17 187.824V25.4321L163.6 76.3038V237.937L17 187.824ZM130.968 101.587V192.25L49.3008 164.289V73.2022L130.968 101.587ZM25 182.104V36.6762L155.6 81.9957V226.747L25 182.104ZM60.0995 155.758V88.76L120.169 109.638V176.324L60.0995 155.758Z" fill="#1D1D1D"/>
<circle cx="181" cy="181" r="56" fill="#FAA21B"/>
<path d="M181 129.958C209.142 129.958 232.042 152.858 232.042 181C232.042 209.142 209.142 232.042 181 232.042C152.858 232.042 129.958 209.142 129.958 181C129.958 152.858 152.858 129.958 181 129.958ZM181 122C148.411 122 122 148.421 122 181C122 213.579 148.421 240 181 240C213.579 240 240 213.579 240 181C240 148.421 213.579 122 181 122Z" fill="#1D1D1D"/>
<path d="M163.528 189.729C163.528 189.729 151.853 200.424 151.032 202.295C150.212 204.166 149.512 210.499 156.895 210.499H206.598C213.981 210.499 213.281 204.166 212.461 202.295C211.64 200.424 198.965 189.729 198.965 189.729" fill="#1D1D1D"/>
<path d="M211.92 202.185C211.099 200.314 189.409 180.615 189.409 180.615V157.554C189.409 156.033 193.161 156.383 193.861 155.563C194.562 154.743 194.682 149 194.682 149H167.719C167.719 149 167.839 154.743 168.54 155.563C169.24 156.383 172.992 156.033 172.992 157.554V180.615C172.992 180.615 151.312 200.314 150.491 202.185C149.671 204.056 148.97 210.389 156.354 210.389H206.057C213.44 210.389 212.74 204.056 211.92 202.185Z" stroke="#1D1D1D" stroke-width="4" stroke-miterlimit="10"/>
<path d="M189.308 158.304H181.305V162.306H189.308V158.304Z" fill="#1D1D1D"/>
<path d="M189.308 168.309H181.305V172.311H189.308V168.309Z" fill="#1D1D1D"/>
<path d="M189.308 178.313H181.305V182.315H189.308V178.313Z" fill="#1D1D1D"/>
</svg>
